{
  "accessors": [
    {
      "bufferView": 2,
      "componentType": 5126,
      "count": 4884,
      "max": [
        21.188459396362305,
        6.8016619682312012,
        2.5
      ],
      "min": [
        0,
        0,
        0
      ],
      "type": "VEC3"
    },
    {
      "bufferView": 2,
      "byteOffset": 58608,
      "componentType": 5126,
      "count": 4884,
      "max": [
        1,
        1,
        1
      ],
      "min": [
        -1,
        -1,
        -1
      ],
      "type": "VEC3"
    },
    {
      "bufferView": 3,
      "componentType": 5126,
      "count": 4884,
      "max": [
        1,
        1,
        1,
        1
      ],
      "min": [
        -0.90296643972396851,
        -1,
        -1,
        1
      ],
      "type": "VEC4"
    },
    {
      "bufferView": 1,
      "componentType": 5126,
      "count": 4884,
      "max": [
        0.99800801277160645,
        0.97728121280670166
      ],
      "min": [
        0.0019920319318771362,
        0.0019506613025441766
      ],
      "type": "VEC2"
    },
    {
      "bufferView": 0,
      "componentType": 5125,
      "count": 18864,
      "max": [
        4883
      ],
      "min": [
        0
      ],
      "type": "SCALAR"
    },
    {
      "bufferView": 2,
      "byteOffset": 117216,
      "componentType": 5126,
      "count": 1562,
      "max": [
        0.726218581199646,
        0.45561701059341431,
        0.40900900959968567
      ],
      "min": [
        -0.61413997411727905,
        -0.00070189341204240918,
        0.22573000192642212
      ],
      "type": "VEC3"
    },
    {
      "bufferView": 2,
      "byteOffset": 135960,
      "componentType": 5126,
      "count": 1562,
      "max": [
        0.99999964237213135,
        1,
        1
      ],
      "min": [
        -1,
        -1,
        -1
      ],
      "type": "VEC3"
    },
    {
      "bufferView": 0,
      "byteOffset": 75456,
      "componentType": 5125,
      "count": 3168,
      "max": [
        1561
      ],
      "min": [
        0
      ],
      "type": "SCALAR"
    },
    {
      "bufferView": 4,
      "componentType": 5126,
      "count": 1,
      "max": [
        0.041666667908430099
      ],
      "min": [
        0.041666667908430099
      ],
      "type": "SCALAR"
    },
    {
      "bufferView": 5,
      "componentType": 5126,
      "count": 1,
      "max": [
        -10.758129119873047,
        2.0211076736450195,
        -2.3573768138885498
      ],
      "min": [
        -10.758129119873047,
        2.0211076736450195,
        -2.3573768138885498
      ],
      "type": "VEC3"
    },
    {
      "bufferView": 4,
      "byteOffset": 4,
      "componentType": 5126,
      "count": 1,
      "max": [
        0.041666667908430099
      ],
      "min": [
        0.041666667908430099
      ],
      "type": "SCALAR"
    },
    {
      "bufferView": 5,
      "byteOffset": 12,
      "componentType": 5126,
      "count": 1,
      "max": [
        1,
        1,
        1
      ],
      "min": [
        1,
        1,
        1
      ],
      "type": "VEC3"
    }
  ],
  "animations": [
    {
      "channels": [
        {
          "sampler": 0,
          "target": {
            "node": 5,
            "path": "translation"
          }
        },
        {
          "sampler": 1,
          "target": {
            "node": 5,
            "path": "scale"
          }
        }
      ],
      "name": "Take 001",
      "samplers": [
        {
          "input": 8,
          "interpolation": "LINEAR",
          "output": 9
        },
        {
          "input": 10,
          "interpolation": "LINEAR",
          "output": 11
        }
      ]
    }
  ],
  "asset": {
    "extras": {
      "author": "cloudstorm (https://sketchfab.com/cloudstormchnl)",
      "license": "CC-BY-4.0 (http://creativecommons.org/licenses/by/4.0/)",
      "source": "https://sketchfab.com/3d-models/sega-logo-c431309e548149f7b8d4b4c4df203204",
      "title": "sega logo"
    },
    "generator": "Sketchfab-6.54.0",
    "version": "2.0"
  },
  "bufferViews": [
    {
      "buffer": 0,
      "byteLength": 88128,
      "byteOffset": 0,
      "name": "floatBufferViews",
      "target": 34963
    },
    {
      "buffer": 0,
      "byteLength": 39072,
      "byteOffset": 88128,
      "byteStride": 8,
      "name": "floatBufferViews",
      "target": 34962
    },
    {
      "buffer": 0,
      "byteLength": 154704,
      "byteOffset": 127200,
      "byteStride": 12,
      "name": "floatBufferViews",
      "target": 34962
    },
    {
      "buffer": 0,
      "byteLength": 78144,
      "byteOffset": 281904,
      "byteStride": 16,
      "name": "floatBufferViews",
      "target": 34962
    },
    {
      "buffer": 0,
      "byteLength": 8,
      "byteOffset": 360048,
      "name": "floatBufferViews"
    },
    {
      "buffer": 0,
      "byteLength": 24,
      "byteOffset": 360056,
      "byteStride": 12,
      "name": "floatBufferViews"
    }
  ],
  "buffers": [
    {
      "byteLength": 360080,
      "uri": "scene.bin"
    }
  ],
  "materials": [
    {
      "doubleSided": true,
      "name": "sega_1",
      "pbrMetallicRoughness": {
        "baseColorFactor": [
          0.013465396531289253,
          0.070296597998741397,
          0.2806968848888971,
          1
        ],
        "metallicFactor": 0,
        "roughnessFactor": 0.59999999999999998
      }
    },
    {
      "doubleSided": true,
      "name": "sega_2",
      "pbrMetallicRoughness": {
        "baseColorFactor": [
          1,
          1,
          1,
          1
        ],
        "metallicFactor": 0,
        "roughnessFactor": 0.59999999999999998
      }
    }
  ],
  "meshes": [
    {
      "name": "typeMesh1_sega_1_0",
      "primitives": [
        {
          "attributes": {
            "NORMAL": 1,
            "POSITION": 0,
            "TANGENT": 2,
            "TEXCOORD_0": 3
          },
          "indices": 4,
          "material": 0,
          "mode": 4
        }
      ]
    },
    {
      "name": "sega_logo_back:Mesh_sega_2_0",
      "primitives": [
        {
          "attributes": {
            "NORMAL": 6,
            "POSITION": 5
          },
          "indices": 7,
          "material": 1,
          "mode": 4
        }
      ]
    }
  ],
  "nodes": [
    {
      "children": [
        1
      ],
      "name": "RootNode (gltf orientation matrix)",
      "rotation": [
        -0.70710678118654746,
        -0,
        -0,
        0.70710678118654757
      ]
    },
    {
      "children": [
        2
      ],
      "name": "RootNode (model correction matrix)"
    },
    {
      "children": [
        3
      ],
      "matrix": [
        1,
        0,
        0,
        0,
        0,
        0,
        1,
        0,
        0,
        -1,
        0,
        0,
        0,
        0,
        0,
        1
      ],
      "name": "ba515953b49c40939c98410299cc422b.fbx"
    },
    {
      "children": [
        4
      ],
      "name": ""
    },
    {
      "children": [
        5,
        7,
        8
      ],
      "name": "RootNode"
    },
    {
      "children": [
        6
      ],
      "name": "typeMesh1",
      "scale": [
        0.98889839649200439,
        1,
        1.3956835269927979
      ],
      "translation": [
        -10.695050239562988,
        2.0211076736450195,
        -2.6056041717529297
      ]
    },
    {
      "mesh": 0,
      "name": "typeMesh1_sega_1_0"
    },
    {
      "name": "transform1"
    },
    {
      "children": [
        9
      ],
      "name": "sega_logo_back:Mesh",
      "scale": [
        16.711137771606445,
        18.222009658813477,
        17.443780899047852
      ],
      "translation": [
        -0.9672396183013916,
        1.3012385368347168,
        -6.3992080688476562
      ]
    },
    {
      "mesh": 1,
      "name": "sega_logo_back:Mesh_sega_2_0"
    }
  ],
  "scene": 0,
  "scenes": [
    {
      "name": "OSG_Scene",
      "nodes": [
        0
      ]
    }
  ]
}

